<?xml version="1.0" encoding="UTF-8" standalone="no"?><!DOCTYPE svg PUBLIC "-//W3C//DTD SVG 1.1//EN" "http://www.w3.org/Graphics/SVG/1.1/DTD/svg11.dtd"><svg width="100%" height="100%" viewBox="0 0 125 125" version="1.1" xmlns="http://www.w3.org/2000/svg" xmlns:xlink="http://www.w3.org/1999/xlink" xml:space="preserve" xmlns:serif="http://www.serif.com/" style="fill-rule:evenodd;clip-rule:evenodd;stroke-linejoin:round;stroke-miterlimit:2;"><rect id="Artboard1" x="-1470.06" y="-1895.26" width="4724.41" height="4724.41" style="fill:none;"/><g id="Artboard11" serif:id="Artboard1"><path d="M26.51,80.467c-0.483,0 -0.807,-0.157 -1,-0.371c-0.159,-0.177 -0.25,-0.404 -0.25,-0.682c0,-0.272 0.077,-0.478 0.207,-0.644c0.156,-0.199 0.417,-0.354 0.846,-0.449l1.142,-0.199c0.531,-0.094 0.87,-0.157 1.06,-0.371c0.183,-0.207 0.19,-0.529 0.19,-1.044l0,-28.937c0,-0.514 -0.007,-0.837 -0.19,-1.044c-0.19,-0.213 -0.529,-0.276 -1.06,-0.371l-1.142,-0.199l-0.012,-0.002c-0.417,-0.093 -0.678,-0.248 -0.834,-0.446c-0.13,-0.166 -0.207,-0.372 -0.207,-0.644c0,-0.279 0.091,-0.506 0.25,-0.682c0.193,-0.215 0.517,-0.372 1,-0.372l10.286,0c6.11,0 10.305,4.245 10.305,10.355c-0,5.909 -4.196,10.059 -10.158,10.059l-3.543,-0c-0.062,-0 -0.116,-0.004 -0.148,0.028c-0.033,0.033 -0.029,0.087 -0.029,0.149l0,11.909c0,0.424 0.016,0.726 0.156,0.944c0.085,0.132 0.223,0.216 0.416,0.293c0.285,0.113 0.664,0.195 1.163,0.276c0,-0 1.82,0.295 1.82,0.295c0.641,0.095 0.973,0.496 0.973,1.047c-0,0.296 -0.089,0.528 -0.237,0.705c-0.196,0.236 -0.523,0.397 -1.013,0.397l-9.991,0Zm6.713,-20.492c0,0.61 0.117,1.091 0.397,1.441c0.438,0.549 1.233,0.754 2.388,0.754c4,-0 6.378,-3.034 6.378,-7.953c0,-2.537 -0.596,-4.545 -1.755,-5.913c-1.132,-1.338 -2.801,-2.04 -4.918,-2.04c-0.656,0 -1.187,0.06 -1.599,0.199c-0.326,0.11 -0.566,0.266 -0.711,0.497c-0.128,0.203 -0.18,0.457 -0.18,0.761l0,12.254Zm28.868,20.935c-8.279,0 -12.864,-7.338 -12.864,-18.868c-0,-11.175 5.681,-18.524 13.504,-18.524c2.653,0 4.846,0.567 6.489,1.388l0.009,0.005c0.308,0.171 0.521,0.352 0.666,0.574c0.151,0.23 0.236,0.511 0.237,0.9l0.148,7.483l0,0.005c0,0.92 -0.516,1.348 -1.102,1.348c-0.274,0 -0.49,-0.066 -0.665,-0.181c-0.243,-0.16 -0.425,-0.425 -0.521,-0.848l-0.391,-1.466c-1.382,-5.111 -2.763,-6.757 -5.756,-6.757c-2.237,0 -4.13,1.392 -5.489,3.994c-1.435,2.751 -2.267,6.819 -2.267,12.079c0,5.432 0.844,9.611 2.316,12.429c1.396,2.671 3.353,4.087 5.686,4.087c1.193,-0 2.104,-0.183 2.706,-0.752c0.603,-0.571 0.867,-1.507 0.867,-2.92l-0,-10.777c-0,-0.524 -0.011,-0.87 -0.198,-1.089c-0.182,-0.214 -0.508,-0.267 -1.017,-0.321l-1.92,-0.197l-0.002,-0.001c-0.364,-0.04 -0.62,-0.178 -0.792,-0.349c-0.202,-0.203 -0.303,-0.464 -0.303,-0.75c-0,-0.278 0.09,-0.505 0.249,-0.682c0.194,-0.214 0.518,-0.371 1.001,-0.371l9.006,-0c0.49,-0 0.817,0.161 1.013,0.397c0.148,0.177 0.237,0.409 0.237,0.705c-0,0.554 -0.335,0.956 -0.984,1.049l-0.739,0.098c-0.419,0.058 -0.688,0.119 -0.846,0.274c-0.088,0.087 -0.121,0.205 -0.145,0.353c-0.041,0.247 -0.042,0.554 -0.042,0.933l-0,13.337c-0,0.929 -0.373,1.413 -1.612,2.032c-1.633,0.817 -3.724,1.383 -6.479,1.383Zm12.303,-0.443c-0.483,0 -0.807,-0.157 -1,-0.371c-0.159,-0.177 -0.25,-0.404 -0.25,-0.682c0,-0.511 0.274,-0.92 1.052,-1.093l1.143,-0.199c0.531,-0.094 0.87,-0.157 1.06,-0.371c0.183,-0.207 0.19,-0.529 0.19,-1.044l0,-28.937c0,-0.514 -0.007,-0.837 -0.19,-1.044c-0.19,-0.213 -0.529,-0.276 -1.06,-0.371l-1.143,-0.199l-0.011,-0.002c-0.767,-0.171 -1.041,-0.579 -1.041,-1.09c0,-0.279 0.091,-0.506 0.25,-0.682c0.193,-0.215 0.517,-0.372 1,-0.372l9.006,0c0.49,0 0.817,0.162 1.013,0.397c0.148,0.178 0.237,0.41 0.237,0.706c0,0.553 -0.335,0.956 -0.978,1.047l-1.331,0.198c-0.517,0.073 -0.848,0.14 -1.033,0.362c-0.188,0.226 -0.201,0.573 -0.201,1.099l-0,12.353c-0,0.062 -0.004,0.116 0.028,0.148c0.033,0.033 0.087,0.029 0.149,0.029l9.744,-0c0.062,-0 0.116,0.004 0.149,-0.029c0.032,-0.032 0.028,-0.086 0.028,-0.148l0,-12.353c0,-0.526 -0.013,-0.873 -0.201,-1.099c-0.185,-0.222 -0.515,-0.288 -1.034,-0.363l-1.327,-0.196c-0.646,-0.092 -0.981,-0.495 -0.981,-1.048c-0,-0.296 0.089,-0.528 0.237,-0.706c0.196,-0.235 0.523,-0.397 1.013,-0.397l9.006,0c0.483,0 0.807,0.157 1,0.372c0.159,0.176 0.25,0.403 0.25,0.682c-0,0.511 -0.274,0.919 -1.052,1.092l-1.143,0.199c-0.531,0.095 -0.869,0.158 -1.059,0.371c-0.184,0.207 -0.191,0.53 -0.191,1.044l0,28.937c0,0.515 0.007,0.837 0.191,1.044c0.19,0.214 0.528,0.277 1.059,0.371l1.143,0.199l0.011,0.003c0.767,0.17 1.041,0.579 1.041,1.09c-0,0.278 -0.091,0.505 -0.25,0.682c-0.193,0.214 -0.517,0.371 -1,0.371l-9.006,0c-0.49,0 -0.817,-0.161 -1.013,-0.397c-0.148,-0.177 -0.237,-0.409 -0.237,-0.705c-0,-0.554 0.335,-0.956 0.978,-1.048l1.331,-0.197c0.517,-0.074 0.848,-0.141 1.033,-0.362c0.188,-0.226 0.201,-0.573 0.201,-1.1l0,-13.632c0,-0.062 0.004,-0.116 -0.028,-0.148c-0.033,-0.033 -0.087,-0.029 -0.149,-0.029l-9.744,0c-0.062,0 -0.116,-0.004 -0.149,0.029c-0.032,0.032 -0.028,0.086 -0.028,0.148l-0,13.632c-0,0.527 0.013,0.874 0.201,1.1c0.185,0.221 0.515,0.288 1.034,0.362l1.327,0.197c0.646,0.092 0.981,0.494 0.981,1.048c0,0.296 -0.089,0.528 -0.237,0.705c-0.196,0.236 -0.523,0.397 -1.013,0.397l-9.006,0Z"/></g></svg>