<svg width="214" height="57" viewBox="0 0 214 57" fill="none" xmlns="http://www.w3.org/2000/svg">
<g clip-path="url(#clip0_27_32)">
<path fill-rule="evenodd" clip-rule="evenodd" d="M0.699815 35.2162C0.226354 35.2162 -0.010376 35.0232 -0.010376 34.6854C-0.010376 34.3477 0.179031 34.2028 0.605146 34.1063L1.69413 33.9134C3.01982 33.6721 3.30385 33.3827 3.30385 32.0317V3.6606C3.30385 2.30959 3.01982 2.0199 1.69413 1.77865L0.605146 1.58569C0.179031 1.48919 -0.010376 1.34458 -0.010376 1.00683C-0.010376 0.669081 0.226354 0.476033 0.699815 0.476033H10.5952C16.182 0.476033 20.017 4.43255 20.017 10.1261C20.017 15.6266 16.1821 19.4866 10.7373 19.4866H7.32826C6.90215 19.4866 6.66546 19.7278 6.66546 20.162V31.8387C6.66546 33.1897 6.99684 33.5275 8.74864 33.817L10.5005 34.1063C10.832 34.1546 11.0213 34.3476 11.0213 34.6371C11.0213 35.0231 10.7845 35.2162 10.3111 35.2162H0.699815ZM6.66546 15.6266C6.66546 17.4601 7.65971 18.2803 9.83762 18.2803C13.9567 18.2803 16.4661 15.144 16.4661 9.98119C16.4661 4.72191 13.9568 1.68229 9.55362 1.68229C7.56508 1.68229 6.66546 2.26129 6.66546 3.6123V15.6266ZM42.4591 35.6504C39.713 35.6504 37.9612 33.817 37.2037 30.1499L36.1147 24.7941C35.0731 19.6313 34.0315 18.5216 30.1491 18.5216C29.2496 18.5216 28.7288 19.0524 28.7288 19.7761V31.8387C28.7288 33.1897 29.0601 33.5275 30.8119 33.817L32.5637 34.1063C32.8951 34.1546 33.0846 34.3476 33.0846 34.6371C33.0846 35.0231 32.8478 35.2162 32.3744 35.2162H22.7631C22.2897 35.2162 22.0529 35.0232 22.0529 34.6854C22.0529 34.3477 22.2423 34.2028 22.6684 34.1063L23.7574 33.9134C25.0831 33.6721 25.3671 33.3827 25.3671 32.0317V3.6606C25.3671 2.30959 25.0831 2.0199 23.7574 1.77865L22.6684 1.58569C22.2423 1.48919 22.0529 1.34458 22.0529 1.00683C22.0529 0.669081 22.2897 0.476033 22.7631 0.476033H32.3744C37.9612 0.476033 41.9857 4.0948 41.9857 9.16108C41.9857 13.2141 39.2869 16.7364 35.6412 18.0874C35.1678 18.2321 35.1678 18.5698 35.5939 18.7628C37.6298 19.7278 38.7187 21.3683 39.3342 24.2633L40.3758 29.1849C41.086 32.5142 41.9383 33.817 43.406 33.817C43.8795 33.817 44.2108 33.7204 44.8737 33.2379C45.3945 32.9002 45.9153 33.0931 45.9153 33.6238C45.9153 34.7336 44.3056 35.6504 42.4591 35.6504ZM31.9009 17.3153C36.1621 17.3153 38.4347 14.1307 38.4347 9.25744C38.4347 4.52891 35.7359 1.68229 31.238 1.68229C29.6282 1.68229 28.7288 2.26129 28.7288 3.6123V14.6616C28.7288 16.4951 29.723 17.3153 31.9009 17.3153ZM46.4835 35.2162C46.0101 35.2162 45.7733 35.0232 45.7733 34.6854C45.7733 34.3959 45.9626 34.2028 46.3887 34.1063L47.4777 33.9134C48.8034 33.6721 49.0876 33.3827 49.0876 32.0317V3.6606C49.0876 2.30959 48.8034 2.0199 47.4777 1.77865L46.3887 1.58569C45.9626 1.48919 45.7733 1.29633 45.7733 1.00683C45.7733 0.669081 46.0101 0.476033 46.4835 0.476033H62.3917C63.1019 0.476033 63.528 0.861941 63.5754 1.58569L63.9542 9.59528C64.0015 10.126 63.7174 10.4156 63.3386 10.4156C62.9599 10.4156 62.7232 10.1742 62.6758 9.78824L62.3917 8.00312C61.6815 3.6606 59.5984 1.68229 55.8107 1.68229C53.254 1.68229 52.4491 2.35765 52.4491 4.19116V15.8195C52.4491 16.2538 52.6859 16.495 53.112 16.495H55.4793C56.8997 16.495 57.7045 15.8196 58.0359 14.2274L58.5094 11.8148C58.6041 11.4288 58.9355 11.1392 59.3142 11.1874C59.6457 11.2357 59.8351 11.477 59.8351 12.0078V22.8641C59.8351 23.3949 59.6457 23.6362 59.3142 23.6845C58.9355 23.7327 58.6041 23.4431 58.5094 23.0571L58.0359 20.6928C57.6098 18.4733 56.8523 17.9425 55.4319 17.9425H53.112C52.6859 17.9425 52.4491 18.1839 52.4491 18.6182V30.7288C52.4491 33.0448 53.4434 34.01 56.5209 34.01C59.693 34.01 62.013 32.6589 62.9126 28.1716L63.4807 25.3249C63.5754 24.9389 63.8121 24.6975 64.1909 24.6975C64.5223 24.6975 64.8064 24.9871 64.759 25.5179L64.2856 34.1063C64.2382 34.8301 63.8121 35.2162 63.1019 35.2162H46.4835ZM75.0331 35.6504C73.1393 35.6504 70.2985 35.0231 69.1622 34.3476C68.7361 34.1063 68.4994 33.9134 68.4994 33.1896L68.2627 25.6145C68.2627 24.9872 68.452 24.6495 68.8781 24.6495C69.2569 24.6495 69.4463 24.8906 69.5883 25.5179L70.0145 27.3513C71.1034 32.0316 72.9973 34.2512 76.0274 34.2512C79.1996 34.2512 81.1881 31.9833 81.1881 28.075C81.1881 24.3115 79.3417 21.1272 75.1279 17.8944C70.4406 14.4687 68.4046 11.477 68.4046 7.85823C68.4046 3.08145 72.003 -0.00646973 77.069 -0.00646973C78.9628 -0.00646973 80.8567 0.475891 81.9931 1.29615C82.3718 1.58565 82.6085 1.82699 82.6085 2.35775L82.7505 9.64358C82.7505 10.1743 82.5611 10.4637 82.135 10.4637C81.8036 10.4637 81.6616 10.2707 81.5196 9.78824L81.1881 8.58198C79.815 3.61221 78.5841 1.44104 75.8381 1.44104C73.092 1.44104 71.3875 3.32266 71.3875 6.60367C71.3875 9.35394 72.9026 11.5735 77.3531 15.1441C82.0877 19.0523 84.1709 22.5263 84.1709 26.6275C84.1709 32.0316 80.3358 35.6504 75.0331 35.6504ZM86.917 35.2162C86.4435 35.2162 86.2068 35.0232 86.2068 34.6854C86.2068 34.3959 86.3962 34.2028 86.8223 34.1063L87.9113 33.9134C89.237 33.6721 89.521 33.3827 89.521 32.0317V3.6606C89.521 2.30959 89.237 2.0199 87.9113 1.77865L86.8223 1.58569C86.3962 1.48919 86.2068 1.29633 86.2068 1.00683C86.2068 0.669081 86.4435 0.476033 86.917 0.476033H95.4867C95.9601 0.476033 96.1969 0.669081 96.1969 1.00683C96.1969 1.29633 96.0075 1.48919 95.5813 1.58569L94.4924 1.77865C93.1667 2.0199 92.8826 2.30959 92.8826 3.6606V32.0317C92.8826 33.3827 93.1667 33.6721 94.4924 33.9134L95.5813 34.1063C96.0075 34.2028 96.1969 34.3959 96.1969 34.6854C96.1969 35.0232 95.9601 35.2162 95.4867 35.2162H86.917ZM98.7061 35.2162C98.2327 35.2162 97.9959 35.0232 97.9959 34.6854C97.9959 34.3477 98.1853 34.2028 98.6114 34.1063L99.7004 33.9134C100.837 33.7204 101.31 33.1897 101.31 32.0317V3.6606C101.31 2.30959 101.026 2.0199 99.7004 1.77865L98.6114 1.58569C98.1853 1.48919 97.9959 1.34458 97.9959 1.00683C97.9959 0.669081 98.2327 0.476033 98.7061 0.476033H108.27C115.656 0.476033 120.296 7.56873 120.296 17.9908C120.296 28.5093 115.419 35.2162 107.797 35.2162H98.7061ZM107.986 33.9617C113.573 33.9617 116.603 28.3646 116.603 17.9908C116.603 7.71348 113.762 1.73059 108.27 1.73059C105.95 1.73059 104.672 2.93675 104.672 5.25276V30.4395C104.672 32.9968 105.619 33.9617 107.986 33.9617ZM123.326 35.2162C122.853 35.2162 122.616 35.0232 122.616 34.6854C122.616 34.3959 122.805 34.2028 123.231 34.1063L124.32 33.9134C125.646 33.6721 125.93 33.3827 125.93 32.0317V3.6606C125.93 2.30959 125.646 2.0199 124.32 1.77865L123.231 1.58569C122.805 1.48919 122.616 1.29633 122.616 1.00683C122.616 0.669081 122.853 0.476033 123.326 0.476033H139.234C139.945 0.476033 140.371 0.861941 140.418 1.58569L140.797 9.59528C140.844 10.126 140.56 10.4156 140.181 10.4156C139.803 10.4156 139.566 10.1742 139.518 9.78824L139.234 8.00312C138.524 3.6606 136.441 1.68229 132.653 1.68229C130.097 1.68229 129.292 2.35765 129.292 4.19116V15.8195C129.292 16.2538 129.528 16.495 129.954 16.495H132.322C133.742 16.495 134.547 15.8196 134.879 14.2274L135.352 11.8148C135.447 11.4288 135.778 11.1392 136.157 11.1874C136.488 11.2357 136.678 11.477 136.678 12.0078V22.8641C136.678 23.3949 136.488 23.6362 136.157 23.6845C135.778 23.7327 135.447 23.4431 135.352 23.0571L134.879 20.6928C134.452 18.4733 133.695 17.9425 132.275 17.9425H129.954C129.528 17.9425 129.292 18.1839 129.292 18.6182V30.7288C129.292 33.0448 130.286 34.01 133.364 34.01C136.536 34.01 138.856 32.6589 139.755 28.1716L140.323 25.3249C140.418 24.9389 140.655 24.6975 141.034 24.6975C141.365 24.6975 141.649 24.9871 141.602 25.5179L141.128 34.1063C141.081 34.8301 140.655 35.2162 139.945 35.2162H123.326ZM163.476 35.6504C162.86 35.6504 162.576 35.361 162.197 34.4925L149.366 6.12117C149.177 5.68692 148.798 5.78356 148.798 6.26606V31.0666C148.798 32.9002 149.319 33.7687 150.882 34.01L151.497 34.1063C151.923 34.1546 152.112 34.3959 152.112 34.6854C152.112 35.0232 151.876 35.2162 151.402 35.2162H144.632C144.158 35.2162 143.922 35.0232 143.922 34.6854C143.922 34.3959 144.111 34.1546 144.537 34.1063L145.153 34.01C146.81 33.7687 147.331 32.9002 147.331 31.0666V3.6606C147.331 2.30959 147.046 2.0199 145.626 1.77865L144.537 1.58569C144.111 1.48919 143.922 1.29633 143.922 1.00683C143.922 0.669081 144.158 0.476033 144.632 0.476033H149.698C150.503 0.476033 151.024 0.765393 151.355 1.5374L162.529 26.5795C162.718 26.9655 163.097 26.8689 163.097 26.4829V4.6256C163.097 2.59909 162.339 1.92359 161.25 1.73059L160.398 1.58569C159.972 1.48919 159.783 1.29633 159.783 1.00683C159.783 0.669081 160.019 0.476033 160.493 0.476033H167.263C167.737 0.476033 167.973 0.669081 167.973 1.00683C167.973 1.29633 167.784 1.53744 167.358 1.58569L166.742 1.68229C165.085 1.92354 164.564 2.59909 164.564 4.6256V34.1063C164.564 35.2643 164.091 35.6504 163.476 35.6504ZM181.704 35.6504C174.697 35.6504 170.057 28.606 170.057 17.6532C170.057 7.03811 175.265 -0.00646973 181.846 -0.00646973C184.402 -0.00646973 186.344 0.524142 187.859 1.29615C188.285 1.5374 188.427 1.7787 188.427 2.30945L188.569 9.64358C188.569 10.1743 188.38 10.4637 188.001 10.4637C187.622 10.4637 187.433 10.2708 187.338 9.83654L186.865 8.05118C185.539 3.03316 183.834 1.39274 181.467 1.39274C177.064 1.39274 173.75 7.13462 173.75 17.6532C173.75 28.5095 177.537 34.2512 181.514 34.2512C184.355 34.2512 185.918 32.8519 187.149 27.6891L187.717 25.3249C187.811 24.8907 188.095 24.6493 188.474 24.6975C188.806 24.7458 188.995 24.9871 188.995 25.5179L188.806 33.3345C188.806 33.8653 188.616 34.1063 188.19 34.3476C186.675 35.1196 184.734 35.6504 181.704 35.6504ZM196.334 35.2162C195.86 35.2162 195.624 35.0232 195.624 34.6854C195.624 34.3959 195.813 34.1546 196.239 34.1063L198.37 33.7687C199.601 33.5757 199.979 33.238 199.979 31.887V20.4999C199.979 19.7279 199.837 19.1487 199.506 18.425L192.546 3.564C192.073 2.5025 191.599 1.92354 190.557 1.68229L190.131 1.58569C189.705 1.48919 189.469 1.29629 189.469 0.958535C189.469 0.620784 189.753 0.476033 190.179 0.476033H198.275C198.701 0.476033 198.938 0.669081 198.938 1.00683C198.938 1.29633 198.701 1.53744 198.133 1.58569L197.233 1.68229C196.144 1.77879 195.623 2.35765 196.239 3.70866L202.063 16.3503C202.299 16.8328 202.773 16.8328 203.009 16.3503L208.596 4.72196C209.401 3.08145 208.975 1.92359 207.507 1.73059L206.466 1.58569C205.898 1.48919 205.661 1.29633 205.661 1.00683C205.661 0.669081 205.898 0.476033 206.324 0.476033H213.047C213.473 0.476033 213.757 0.620784 213.757 0.958535C213.757 1.29629 213.52 1.48919 213.094 1.58569L212.621 1.68229C211.721 1.87529 211.2 2.64725 210.159 4.77026L203.956 17.46C203.53 18.3767 203.341 19.1005 203.341 20.1137V31.887C203.341 33.238 203.72 33.5757 204.951 33.7687L207.081 34.1063C207.507 34.1546 207.697 34.3959 207.697 34.6854C207.697 35.0232 207.46 35.2162 206.987 35.2162H196.334Z" fill="white"/>
<path fill-rule="evenodd" clip-rule="evenodd" d="M9.79277 55.4711C9.43235 55.9293 8.96785 56.2815 8.40306 56.5352C7.83457 56.7889 7.21776 56.9176 6.54523 56.9176C5.5903 56.9176 4.79145 56.6639 4.15235 56.1565C3.50954 55.6491 3.03022 54.888 2.71439 53.8656C2.39855 52.847 2.23877 51.5746 2.23877 50.0562C2.23877 48.5112 2.39855 47.2011 2.71439 46.1333C3.03022 45.0617 3.49468 44.2475 4.10405 43.6908C4.71342 43.1342 5.45283 42.854 6.32229 42.854C7.05428 42.854 7.68225 43.0433 8.19501 43.4258C8.71149 43.8045 9.10906 44.3573 9.39145 45.0768C9.67012 45.8001 9.81132 46.6671 9.81132 47.682H8.07608C8.07608 46.5649 7.9312 45.7357 7.63766 45.1904C7.34412 44.6451 6.90197 44.3724 6.30374 44.3724C5.7947 44.3724 5.3711 44.5808 5.03669 44.9935C4.70227 45.4025 4.4496 46.0196 4.28239 46.8451C4.11147 47.6668 4.02975 48.7082 4.02975 49.9615C4.02975 51.2528 4.11892 52.2979 4.30099 53.0969C4.47934 53.8959 4.76542 54.479 5.15929 54.8464C5.54943 55.2137 6.05479 55.3954 6.67531 55.3954C6.96142 55.3954 7.2215 55.3537 7.45188 55.2742C7.6711 55.1947 7.86801 55.0735 8.03894 54.9183V50.9499H6.21085V49.4655H9.79277V55.4711ZM23.5519 50.8173V56.7245H21.7981V43.0433H24.6146C25.3614 43.0433 26.008 43.2138 26.5542 43.547C27.1004 43.884 27.5239 44.3384 27.8212 44.9178C28.1185 45.4934 28.2708 46.1597 28.2708 46.9208C28.2708 47.6668 28.1185 48.3371 27.8212 48.924C27.5239 49.5147 27.1041 49.9767 26.5616 50.3138C26.2272 50.522 25.8519 50.6659 25.432 50.7454L28.791 56.7245H26.7957L23.6337 50.8173H23.5519ZM23.5519 49.3897H24.5589C25.1682 49.3897 25.6512 49.1625 26.0042 48.7081C26.3572 48.2499 26.5356 47.663 26.5356 46.9398C26.5356 46.2166 26.3572 45.6335 26.0042 45.1904C25.6512 44.7474 25.1682 44.5278 24.5589 44.5278H23.5519V49.3897ZM43.5237 56.9176C42.8771 56.9176 42.2975 56.7586 41.7885 56.4405C41.2794 56.1262 40.8484 55.6604 40.5028 55.0545C40.1535 54.4449 39.8897 53.7027 39.7076 52.8205C39.5293 51.942 39.4401 50.9423 39.4401 49.8291C39.4401 48.3447 39.5962 47.0875 39.9157 46.0575C40.2316 45.0237 40.696 44.2324 41.3054 43.6796C41.9111 43.1305 42.6468 42.854 43.5051 42.854C44.3857 42.854 45.1326 43.1267 45.7419 43.672C46.3513 44.2173 46.8121 45.0087 47.1316 46.0462C47.4474 47.0837 47.6072 48.3522 47.6072 49.8479C47.6072 50.9612 47.5143 51.9609 47.3359 52.8394C47.1539 53.7217 46.8901 54.46 46.5445 55.0621C46.1952 55.6642 45.7679 56.1262 45.2552 56.4405C44.7461 56.7586 44.1702 56.9176 43.5237 56.9176ZM43.5051 55.3954C44.0141 55.3954 44.4377 55.1834 44.7796 54.7593C45.1214 54.3352 45.3815 53.7065 45.5562 52.8772C45.7308 52.048 45.8162 51.0256 45.8162 49.8101C45.8162 48.606 45.7308 47.6025 45.5562 46.796C45.3815 45.9932 45.1214 45.3873 44.7796 44.9821C44.4377 44.577 44.0141 44.3724 43.5051 44.3724C43.0072 44.3724 42.5873 44.5732 42.2455 44.9746C41.9036 45.3722 41.6472 45.9742 41.48 46.777C41.3128 47.5836 41.2274 48.5946 41.2274 49.8101C41.2274 51.0256 41.3165 52.0517 41.4912 52.8886C41.6658 53.7217 41.9185 54.3502 42.2529 54.7705C42.591 55.1871 43.0072 55.3954 43.5051 55.3954ZM62.6891 56.9176C61.5707 56.9176 60.7198 56.5693 60.1365 55.8725C59.5531 55.1758 59.2595 54.2253 59.2595 53.0212V43.0433H61.0134V53.3052C61.0134 54.0284 61.162 54.5585 61.4592 54.8917C61.7602 55.2288 62.1689 55.3954 62.6891 55.3954C63.2131 55.3954 63.618 55.2288 63.9116 54.8917C64.2051 54.5585 64.35 54.036 64.35 53.3241V43.0433H66.1038V53.0401C66.1038 54.2291 65.8103 55.1758 65.2269 55.8725C64.6436 56.5693 63.7964 56.9176 62.6891 56.9176ZM79.9967 51.2528V56.7245H78.243V43.0433H81.0594C81.8657 43.0433 82.5569 43.2138 83.1254 43.5584C83.6976 43.8992 84.136 44.3725 84.4407 44.9821C84.7454 45.5918 84.8977 46.3074 84.8977 47.1291C84.8977 47.9546 84.7454 48.6741 84.4407 49.2951C84.136 49.9161 83.6976 50.397 83.1254 50.7416C82.5569 51.0824 81.8657 51.2528 81.0594 51.2528H79.9967ZM79.9967 49.7722H81.0223C81.706 49.7722 82.2299 49.5413 82.5977 49.0793C82.9619 48.6136 83.1476 47.966 83.1476 47.1291C83.1476 46.3074 82.9619 45.6675 82.5977 45.2093C82.2299 44.7549 81.706 44.5278 81.0223 44.5278H79.9967V49.7722ZM110.8 50.3402V56.7245H109.046V43.0433H110.8V48.8597H114.341V43.0433H116.095V56.7245H114.341V50.3402H110.8ZM131.946 56.9176C131.299 56.9176 130.719 56.7586 130.21 56.4405C129.701 56.1262 129.27 55.6604 128.921 55.0545C128.576 54.4449 128.312 53.7027 128.13 52.8205C127.951 51.942 127.862 50.9423 127.862 49.8291C127.862 48.3447 128.018 47.0875 128.334 46.0575C128.654 45.0237 129.114 44.2324 129.724 43.6796C130.333 43.1305 131.069 42.854 131.927 42.854C132.808 42.854 133.555 43.1267 134.164 43.672C134.773 44.2173 135.234 45.0087 135.554 46.0462C135.869 47.0837 136.029 48.3522 136.029 49.8479C136.029 50.9612 135.936 51.9609 135.758 52.8394C135.576 53.7217 135.312 54.46 134.963 55.0621C134.617 55.6642 134.186 56.1262 133.677 56.4405C133.168 56.7586 132.592 56.9176 131.946 56.9176ZM131.927 55.3954C132.436 55.3954 132.86 55.1834 133.202 54.7593C133.543 54.3352 133.803 53.7065 133.978 52.8772C134.149 52.048 134.238 51.0256 134.238 49.8101C134.238 48.606 134.149 47.6025 133.978 46.796C133.803 45.9932 133.543 45.3873 133.202 44.9821C132.86 44.577 132.436 44.3724 131.927 44.3724C131.429 44.3724 131.009 44.5732 130.667 44.9746C130.326 45.3722 130.069 45.9742 129.902 46.777C129.735 47.5836 129.649 48.5946 129.649 49.8101C129.649 51.0256 129.739 52.0517 129.913 52.8886C130.084 53.7217 130.34 54.3502 130.675 54.7705C131.013 55.1871 131.429 55.3954 131.927 55.3954ZM149.079 56.7245V44.5278H146.359V43.0433H153.556V44.5278H150.832V56.7245H149.079ZM170.656 56.7245H164.911V43.0433H170.503V44.5278H166.665V48.8975H170.262V50.3591H166.665V55.2439H170.656V56.7245ZM187.789 56.7245H182.568V43.0433H184.322V55.2439H187.789V56.7245ZM201.979 56.8987C200.823 56.8987 199.931 56.4935 199.303 55.6908C198.676 54.888 198.363 53.7747 198.363 52.3547H200.021C200.021 53.3317 200.206 54.0852 200.57 54.6153C200.938 55.1492 201.444 55.4143 202.09 55.4143C202.566 55.4143 202.93 55.2591 203.19 54.9486C203.454 54.6381 203.584 54.1913 203.584 53.6081C203.584 53.1159 203.48 52.6728 203.275 52.279C203.071 51.8852 202.744 51.5065 202.298 51.1392L200.656 49.7912C200.021 49.2837 199.549 48.7157 199.24 48.091C198.928 47.4624 198.772 46.7959 198.772 46.084C198.772 45.4251 198.898 44.8533 199.155 44.3649C199.411 43.8764 199.775 43.5015 200.255 43.2327C200.734 42.9676 201.291 42.8351 201.923 42.8351C202.967 42.8351 203.77 43.191 204.331 43.8991C204.888 44.6072 205.167 45.6296 205.167 46.9588H203.528C203.528 46.0575 203.391 45.3949 203.116 44.9632C202.844 44.5315 202.432 44.3157 201.886 44.3157C201.425 44.3157 201.072 44.4595 200.823 44.7435C200.574 45.0313 200.452 45.4365 200.452 45.9704C200.452 46.4399 200.559 46.8641 200.779 47.2428C200.994 47.6252 201.321 47.9963 201.756 48.3636L203.398 49.7154C204.03 50.2228 204.502 50.8059 204.814 51.4724C205.126 52.1351 205.282 52.8318 205.282 53.5513C205.282 54.5926 204.985 55.4105 204.394 56.005C203.803 56.5995 203.001 56.8987 201.979 56.8987Z" fill="white" fill-opacity="0.56"/>
</g>
<defs>
<clipPath id="clip0_27_32">
<rect width="214" height="57" fill="white"/>
</clipPath>
</defs>
</svg>
