<?xml version="1.0" standalone="no"?>
<!DOCTYPE svg PUBLIC "-//W3C//DTD SVG 20010904//EN"
 "http://www.w3.org/TR/2001/REC-SVG-20010904/DTD/svg10.dtd">
<svg version="1.0" xmlns="http://www.w3.org/2000/svg"
 width="700.000000pt" height="700.000000pt" viewBox="0 0 700.000000 700.000000"
 preserveAspectRatio="xMidYMid meet">
<metadata>
Created by potrace 1.14, written by Peter Selinger 2001-2017
</metadata>
<g transform="translate(0.000000,700.000000) scale(0.100000,-0.100000)"
fill="#000000" stroke="none">
<path d="M3460 4562 c-378 -34 -648 -375 -696 -877 -11 -124 -7 -306 11 -435
13 -96 17 -119 30 -164 9 -28 16 -53 16 -56 1 -3 3 -9 5 -15 21 -72 32 -100
60 -157 89 -182 211 -295 381 -355 71 -25 90 -27 223 -27 159 0 222 12 337 66
110 51 103 17 103 495 0 253 4 421 10 433 6 11 26 21 52 25 67 10 74 14 87 42
10 23 9 30 -7 52 l-19 26 -286 3 c-276 2 -287 2 -307 -18 -23 -23 -26 -49 -6
-75 10 -14 37 -22 107 -31 59 -8 98 -18 105 -28 7 -10 10 -129 10 -378 -1
-342 -2 -365 -21 -403 -31 -61 -73 -80 -175 -79 -102 0 -158 25 -232 100 -62
63 -139 211 -163 316 -42 186 -50 270 -49 533 1 301 30 458 117 634 75 153
182 234 307 234 85 0 132 -16 180 -62 53 -50 125 -211 155 -346 17 -79 36
-105 76 -105 30 0 58 22 60 48 6 69 -4 453 -12 478 -20 65 -170 113 -394 127
-16 1 -46 1 -65 -1z"/>
<path d="M1450 4528 c-23 -9 -39 -44 -32 -71 6 -23 45 -43 97 -50 48 -7 78
-17 87 -31 3 -5 6 -390 6 -855 0 -690 -3 -850 -13 -867 -9 -15 -30 -24 -62
-30 -82 -13 -97 -20 -112 -48 -16 -29 -1 -63 32 -75 12 -5 157 -8 323 -7 238
1 305 4 318 15 19 16 21 74 3 90 -8 6 -54 18 -103 26 -49 9 -99 23 -111 31
l-23 14 0 360 0 360 118 1 c167 1 228 9 312 41 229 89 353 288 345 556 -3 95
-35 210 -81 288 -71 122 -227 223 -384 251 -45 8 -699 9 -720 1z m701 -147
c144 -55 221 -204 220 -425 -1 -225 -106 -393 -268 -426 -117 -25 -218 1 -234
61 -4 13 -7 192 -8 397 -1 362 0 373 19 390 29 25 56 30 140 27 48 -1 96 -10
131 -24z"/>
<path d="M4126 4525 c-15 -7 -22 -22 -24 -47 -3 -32 1 -39 25 -51 15 -8 52
-18 81 -22 29 -4 59 -14 67 -22 13 -12 15 -129 15 -868 0 -950 6 -877 -72
-889 -70 -11 -104 -25 -115 -49 -13 -29 0 -65 28 -76 12 -4 147 -7 300 -7 266
1 279 2 293 21 20 26 20 60 0 79 -8 9 -18 17 -22 17 -4 1 -22 3 -41 5 -65 8
-109 24 -114 43 -2 10 -5 199 -5 420 l0 401 284 0 285 0 -3 -415 c-2 -339 -6
-417 -17 -424 -7 -5 -47 -14 -88 -21 -62 -10 -76 -15 -85 -35 -13 -30 -4 -70
19 -81 24 -10 552 -13 581 -3 29 11 43 47 29 76 -10 23 -43 37 -115 48 -78 12
-72 -60 -72 877 0 463 3 851 6 864 6 25 53 44 107 44 38 0 88 49 80 78 -11 45
-21 46 -307 47 -149 1 -283 -3 -298 -8 -30 -10 -43 -36 -34 -72 6 -25 39 -39
117 -50 79 -12 74 19 77 -405 l3 -380 -285 0 -284 0 0 374 c0 422 -4 399 78
411 83 11 97 16 110 40 17 31 6 72 -23 81 -35 12 -557 11 -581 -1z"/>
</g>
</svg>
